<?xml version="1.0" encoding="utf-8"?>
<!-- Generator: Adobe Illustrator 27.5.0, SVG Export Plug-In . SVG Version: 6.00 Build 0)  -->
<svg version="1.1" id="Layer_1" xmlns="http://www.w3.org/2000/svg" xmlns:xlink="http://www.w3.org/1999/xlink" x="0px" y="0px"
	 viewBox="0 0 400 400" style="enable-background:new 0 0 400 400;" xml:space="preserve">
<style type="text/css">
	.st0{fill:#14B7B2;}
</style>
<g>
	<path class="st0" d="M152.7,293.9H94.9c-3,0-5.4,2.4-5.4,5.4s2.4,5.4,5.4,5.4h57.8c3,0,5.4-2.4,5.4-5.4
		C158.1,296.3,155.7,293.9,152.7,293.9z"/>
	<path class="st0" d="M152.7,272.2H94.9c-3,0-5.4,2.4-5.4,5.4c0,3,2.4,5.4,5.4,5.4h57.8c3,0,5.4-2.4,5.4-5.4
		S155.7,272.2,152.7,272.2z"/>
	<path class="st0" d="M152.7,250.6H94.9c-3,0-5.4,2.4-5.4,5.4c0,3,2.4,5.4,5.4,5.4h57.8c3,0,5.4-2.4,5.4-5.4
		S155.7,250.6,152.7,250.6z"/>
	<path class="st0" d="M155,136.6c-0.3-0.1-0.5-0.2-0.8-0.3c-2.3-0.9-4.6-1.7-6.9-2.3v-19.6c0-3-2.4-5.4-5.4-5.4H140V46.5
		c0-9-7.3-16.2-16.2-16.2c-9,0-16.2,7.3-16.2,16.2V109h-1.8c-3,0-5.4,2.4-5.4,5.4V134c-2.4,0.7-4.7,1.5-6.9,2.3
		c-0.3,0.1-0.5,0.2-0.8,0.3c-31.4,12.5-53.6,43.1-53.6,78.9v134.3c0,10.9,8.9,19.9,19.9,19.9s19.9-8.9,19.9-19.9v-36.1
		c0-10.9-8.9-19.9-19.9-19.9c-3.2,0-6.3,0.8-9,2.2v-80.5c0-28.4,16.1-53.2,39.7-65.6v15c0,11,8.9,19.9,19.9,19.9h28.9
		c11,0,19.9-8.9,19.9-19.9v-15c23.6,12.4,39.7,37.1,39.7,65.6v80.5c-2.7-1.4-5.8-2.2-9-2.2c-11,0-19.9,8.9-19.9,19.9v23.5h-74
		c-3,0-5.4,2.4-5.4,5.4c0,3,2.4,5.4,5.4,5.4h74v1.8c0,10.9,8.9,19.9,19.9,19.9c11,0,19.9-8.9,19.9-19.9V215.5
		C208.7,179.8,186.4,149.1,155,136.6z M58.8,304.7c5,0,9,4,9,9v36.1c0,5-4.1,9-9,9c-5,0-9-4.1-9-9v-36.1
		C49.8,308.8,53.8,304.7,58.8,304.7z M118.4,46.5c0-3,2.4-5.4,5.4-5.4s5.4,2.4,5.4,5.4V109h-10.8L118.4,46.5L118.4,46.5z
		 M111.2,119.8h25.3v11.8c-4.1-0.6-8.3-0.9-12.6-0.9c-4.3,0-8.5,0.3-12.6,0.9V119.8L111.2,119.8z M147.3,165c0,5-4.1,9-9,9h-28.9
		c-5,0-9-4.1-9-9v-19.7c7.4-2.5,15.3-3.8,23.5-3.8c8.2,0,16.1,1.3,23.5,3.8L147.3,165L147.3,165z M197.8,349.9c0,5-4,9-9,9
		c-5,0-9-4-9-9v-36.1c0-5,4.1-9,9-9c5,0,9,4,9,9V349.9z"/>
	<path class="st0" d="M357.6,337.2h-21.8c-2.4-11.8-12.5-20.8-24.7-21.6V136.1c0-2.4-1.5-4.4-3.6-5.1V96c0-36.2-29.5-65.7-65.7-65.7
		c-36.2,0-65.7,29.5-65.7,65.7v36.5c0,3,2.4,5.4,5.4,5.4c3,0,5.4-2.4,5.4-5.4V96c0-30.3,24.6-54.9,54.9-54.9
		c30.3,0,54.9,24.6,54.9,54.9v34.7h-10.8V96c0-24.3-19.8-44.1-44.1-44.1c-24.3,0-44.1,19.8-44.1,44.1v57c0,3,2.4,5.4,5.4,5.4
		c3,0,5.4-2.4,5.4-5.4V96c0-18.3,14.9-33.2,33.2-33.2c18.3,0,33.2,14.9,33.2,33.2v35c-2.1,0.7-3.6,2.7-3.6,5.1v179.5
		c-12.3,0.8-22.3,9.8-24.7,21.6h-21.8c-3,0-5.4,2.4-5.4,5.4v21.7c0,3,2.4,5.4,5.4,5.4h132.7c3,0,5.4-2.4,5.4-5.4v-21.7
		C363.1,339.6,360.6,337.2,357.6,337.2z M282.2,141.5h18.1v174h-18.1V141.5z M273.2,326.4h36.1c7.1,0,13.1,4.5,15.3,10.8h-66.7
		C260.1,330.9,266.2,326.4,273.2,326.4z M352.2,358.9H230.3V348h121.9V358.9z"/>
</g>
</svg>
