<?xml version="1.0" encoding="utf-8"?>
<!-- Generator: Adobe Illustrator 27.5.0, SVG Export Plug-In . SVG Version: 6.00 Build 0)  -->
<svg version="1.1" id="Layer_1" xmlns="http://www.w3.org/2000/svg" xmlns:xlink="http://www.w3.org/1999/xlink" x="0px" y="0px"
	 viewBox="0 0 400 400" style="enable-background:new 0 0 400 400;" xml:space="preserve">
<style type="text/css">
	.st0{fill:#14B7B2;}
</style>
<path class="st0" d="M200.8,0.5c-35.4,0-70.1,9.4-100.7,27.2c-30.6,17.8-55.9,43.4-73.4,74.2c-17.5,30.8-26.5,65.6-26.1,101
	c0.4,35.4,10.1,70.1,28.2,100.5c-0.9,1.1-1.4,2.5-1.5,3.9c-0.1,1.4,0.3,2.9,1.1,4l7.6,11.3L3.8,342c-1.2,0.7-2.1,1.7-2.6,2.9
	c-0.6,1.2-0.7,2.6-0.5,3.9c0.2,1.3,0.9,2.6,1.8,3.5c0.9,1,2.1,1.6,3.5,1.9l27.7,5.5L31.8,394c-0.1,1.2,0.2,2.4,0.8,3.5
	c0.6,1.1,1.4,2,2.5,2.6c1,0.6,2.2,1,3.4,1c1.2,0,2.4-0.3,3.4-1l51-30.6c32.2,20.6,69.7,31.6,108,31.6s75.7-11,108-31.6l51,30.6
	c1,0.6,2.2,1,3.4,1c1.2,0,2.4-0.3,3.4-1c1-0.6,1.9-1.5,2.5-2.6c0.6-1.1,0.8-2.3,0.8-3.5l-1.9-34.3l27.7-5.5c1.3-0.3,2.5-0.9,3.5-1.9
	c0.9-1,1.6-2.2,1.8-3.5c0.2-1.3,0.1-2.7-0.5-3.9c-0.6-1.2-1.5-2.3-2.6-2.9l-32.2-19.3l7.6-11.3c0.8-1.2,1.2-2.6,1.1-4
	c-0.1-1.4-0.6-2.8-1.5-3.9c18.1-30.4,27.9-65.1,28.2-100.5c0.4-35.4-8.6-70.3-26.1-101c-17.5-30.8-42.8-56.4-73.4-74.2
	C271,9.9,236.2,0.5,200.8,0.5z M62.6,301.3c43.1-20.7,90.4-31.5,138.2-31.5s95.1,10.8,138.2,31.5l18.9,9.1l-19.3,28.9
	c-43.3-19.7-90.3-29.9-137.8-29.9c-47.5,0-94.5,10.2-137.8,29.9l-19.3-28.9L62.6,301.3z M200.8,256.5c-37.7,0.1-75.1,6.5-110.7,19
	c-14.9-22-22.9-48-22.8-74.6c0-73.6,59.9-133.5,133.5-133.5c73.6,0,133.5,59.9,133.5,133.5c0.1,26.6-7.9,52.6-22.8,74.6
	C275.9,262.9,238.5,256.5,200.8,256.5z M247,326.1c-29.8,11-62.6,11-92.4,0C185.2,321.5,216.4,321.5,247,326.1z M45.8,382.2
	l1.5-27.5c0.1-1.6-0.4-3.2-1.4-4.4c-1-1.3-2.4-2.1-4-2.5l-16.4-3.3l17.9-10.7l11.7,17.6c0.9,1.3,2.2,2.3,3.8,2.7
	c1.5,0.4,3.2,0.3,4.6-0.4c4.5-2.1,9-4.1,13.6-6.1l7.5,11.3L45.8,382.2z M100.1,358.3c-0.1-0.3-0.3-0.7-0.5-1l-9.8-14.7
	c13.6-5,27.6-9.1,41.8-12.3c21.3,11.4,45.1,17.3,69.3,17.3c24.2,0,48-6,69.3-17.3c14.2,3.2,28.2,7.3,41.8,12.3l-9.8,14.7
	c-0.2,0.3-0.4,0.6-0.5,1c-30.1,19.2-65,29.5-100.7,29.5C165.1,387.7,130.2,377.5,100.1,358.3C100.1,358.3,100.1,358.3,100.1,358.3z
	 M376.2,344.5l-16.5,3.3c-1.6,0.3-3,1.2-4,2.5c-1,1.3-1.5,2.8-1.4,4.4l1.5,27.5l-38.8-23.3l7.5-11.3c4.6,1.9,9.1,3.9,13.6,6.1
	c1.4,0.7,3.1,0.8,4.6,0.4c1.5-0.4,2.9-1.4,3.8-2.7l11.7-17.6L376.2,344.5z M361.1,297l-16.3-7.8c-6.7-3.2-13.5-6.2-20.5-9
	c15.3-23.7,23.4-51.3,23.3-79.4c0-81-65.9-146.9-146.9-146.9c-81,0-146.9,65.9-146.9,146.9c-0.1,28.2,8,55.8,23.3,79.5
	c-6.9,2.8-13.7,5.7-20.4,9L40.5,297c-17-28.4-26.2-60.7-26.6-93.8c-0.4-33.1,7.9-65.7,24.2-94.5S78.1,56,106.7,39.4
	c28.6-16.7,61.1-25.4,94.1-25.4c33.1,0,65.6,8.8,94.1,25.4c28.6,16.7,52.2,40.6,68.5,69.4s24.7,61.4,24.2,94.5
	C387.3,236.3,378.1,268.7,361.1,297L361.1,297L361.1,297z"/>
<path class="st0" d="M264.2,147.4h-36.7c-1.8,0-3.5-0.7-4.7-2c-1.3-1.3-2-2.9-2-4.7v-20c0-5.3-2.1-10.4-5.9-14.2
	c-3.8-3.8-8.8-5.9-14.2-5.9h-13.4c-1.8,0-3.5,0.7-4.7,2s-2,2.9-2,4.7v14.7c0,5-1,10-2.9,14.7c-1.9,4.7-4.8,8.9-8.3,12.4l-4.9,4.9
	h-37.3c-1.8,0-3.5,0.7-4.7,2s-2,3-2,4.7v73.4c0,1.8,0.7,3.5,2,4.7c1.3,1.3,3,2,4.7,2h116.8c2.7,0,5.4-0.7,7.8-1.9
	c2.4-1.3,4.4-3.1,6-5.3c1.5-2.2,2.5-4.8,2.8-7.5c0.3-2.7,0-5.4-1-7.9c3.3-2.1,5.7-5.2,6.9-8.8c1.2-3.7,1.1-7.6-0.2-11.2
	c3.3-2.1,5.7-5.2,6.9-8.8c1.2-3.7,1.1-7.6-0.2-11.2c3.1-1.9,5.4-4.8,6.7-8.2c1.3-3.4,1.4-7.1,0.4-10.6c-1-3.5-3.1-6.5-6-8.7
	C271.4,148.6,267.8,147.4,264.2,147.4z M134,167.4h26.7v60.1H134V167.4z M264.2,167.4h-6.7c-1.8,0-3.5,0.7-4.7,2
	c-1.3,1.3-2,2.9-2,4.7c0,1.8,0.7,3.5,2,4.7s3,2,4.7,2c0.9,0,1.7,0.4,2.4,1c0.6,0.6,1,1.5,1,2.4c0,0.9-0.4,1.7-1,2.4
	c-0.6,0.6-1.5,1-2.4,1h-6.7c-1.8,0-3.5,0.7-4.7,2c-1.3,1.3-2,3-2,4.7c0,1.8,0.7,3.5,2,4.7c1.3,1.3,3,2,4.7,2c0.9,0,1.7,0.4,2.4,1
	s1,1.5,1,2.4s-0.4,1.7-1,2.4s-1.5,1-2.4,1h-6.7c-1.8,0-3.5,0.7-4.7,2c-1.3,1.3-2,2.9-2,4.7s0.7,3.5,2,4.7c1.3,1.3,3,2,4.7,2
	c0.9,0,1.7,0.4,2.4,1s1,1.5,1,2.4s-0.4,1.7-1,2.4s-1.5,1-2.4,1h-70.1v-64l4.9-4.9c4.8-4.8,8.6-10.5,11.2-16.8s3.9-13,3.9-19.8v-8
	h6.7c1.8,0,3.5,0.7,4.7,2c1.3,1.3,2,2.9,2,4.7v20c0,5.3,2.1,10.4,5.9,14.2c3.8,3.8,8.8,5.9,14.2,5.9h36.7c0.9,0,1.7,0.4,2.4,1
	c0.6,0.6,1,1.5,1,2.4s-0.4,1.7-1,2.4C266,167.1,265.1,167.4,264.2,167.4z"/>
</svg>
