<?xml version="1.0" encoding="utf-8"?>
<!-- Generator: Adobe Illustrator 16.2.0, SVG Export Plug-In . SVG Version: 6.00 Build 0)  -->
<!DOCTYPE svg PUBLIC "-//W3C//DTD SVG 1.1//EN" "http://www.w3.org/Graphics/SVG/1.1/DTD/svg11.dtd">
<svg version="1.1" id="Layer_1" xmlns="http://www.w3.org/2000/svg" xmlns:xlink="http://www.w3.org/1999/xlink" x="0px" y="0px"
	 width="17.915px" height="441.394px" viewBox="0 0 17.915 441.394" enable-background="new 0 0 17.915 441.394"
	 xml:space="preserve">
<path fill="#E8E8E8" d="M7.62,144.276c-0.036,2.535-0.191,5.074-0.064,7.603c0.077,1.544-0.896,1.471-2.135,1.461
	c-1.148-0.008-2.043,0.108-2.023-1.36c0.093-6.748,0.094-13.497,0-20.244c-0.02-1.468,0.871-1.366,2.017-1.353
	c1.187,0.014,2.247-0.145,2.146,1.44c-0.146,2.296,0.019,4.607,0.052,6.911c2.273,1.154,4.777,0.573,7.18,0.648
	c2.517,0.078,2.615-0.064,2.619-2.246c0.008-7.203-0.041-14.405,0.043-21.607c0.016-1.318-0.281-2.325-1.613-3.036
	c-2.314-0.026-4.629-0.017-6.94-0.091c-1.077-0.034-1.424,0.307-1.404,1.198c0.051,2.309-0.084,4.623,0.053,6.927
	c0.085,1.444-0.936,1.296-1.956,1.237c-0.946-0.055-2.209,0.463-2.19-1.182c0.079-6.814,0.079-13.628,0.002-20.442
	c-0.018-1.588,1.152-1.206,2.161-1.238c1.025-0.032,2.047-0.195,1.974,1.228c-0.115,2.248,0.021,4.504-0.052,6.754
	c-0.033,1.011,0.236,1.46,1.566,1.404c2.513-0.107,5.034-0.076,7.551-0.102c0.658-0.91,0.822-1.898,0.817-2.959
	c-0.03-7.297-0.02-14.595-0.016-21.892c0-0.741-0.131-1.5,0.328-2.194c-3.142-0.616-6.324-0.182-9.486-0.238
	c-0.924-0.016-0.727,0.703-0.731,1.182c-0.02,2.253-0.11,4.511,0.033,6.757c0.091,1.436-0.799,1.427-1.999,1.395
	c-1.171-0.03-2.182,0.173-2.156-1.423c0.106-6.643,0.086-13.288-0.007-19.931c-0.02-1.421,0.676-1.576,2.056-1.562
	c1.32,0.014,2.174,0.056,2.11,1.523c-0.109,2.477,0.023,4.962,0.054,7.444c2.445,0.005,4.891-0.05,7.333,0.035
	c1.799,0.063,2.525-0.424,2.506-2.06c-0.084-7.484-0.063-14.968,0.006-22.452c0.008-0.74-0.672-1.521,0.074-2.243
	c-2.914-0.308-5.839-0.064-8.756-0.137c-1.214-0.03-1.281,0.528-1.272,1.303c0.028,2.25-0.064,4.504,0.036,6.752
	c0.076,1.71-1.353,1.198-2.372,1.29c-1.046,0.096-1.77-0.006-1.757-1.24c0.069-6.81,0.079-13.622-0.003-20.433
	c-0.019-1.519,1.014-1.294,2.104-1.314c1.155-0.022,2.132-0.096,2.044,1.369c-0.137,2.246,0.01,4.502-0.064,6.752
	c-0.033,0.993,0.38,1.295,1.519,1.264c2.788-0.075,5.579-0.062,8.368-0.085c0.012-8.039,0.017-16.079,0.043-24.119
	c0.002-0.967-0.184-1.955,0.262-2.898c-3.033-0.47-6.094-0.077-9.139-0.206c-0.999-0.043-1.03,0.526-1.027,1.15
	c0.011,2.253-0.076,4.509,0.029,6.758c0.06,1.31-0.617,1.568-1.953,1.467c-1.125-0.085-2.232,0.226-2.205-1.411
	c0.111-6.7,0.111-13.403,0.013-20.102C3.375,4.054,4.573,4.429,5.649,4.37c1.133-0.062,1.97,0.013,1.897,1.337
	c-0.12,2.191,0.035,4.392-0.069,6.584c-0.055,1.167,0.451,1.487,1.749,1.45c2.451-0.068,4.907-0.045,7.359-0.011
	c0.943,0.013,1.322-0.23,1.312-1.083c-0.042-3.87-0.053-7.742,0.013-11.611c0.018-1.086-0.692-1.01-1.556-1.032
	c-0.999-0.025-1.671,0.044-1.639,1.16c0.079,2.772-0.06,5.548,0.069,8.317c0.063,1.382-0.584,1.617-2.022,1.611
	c-1.47-0.006-2.261-0.176-2.151-1.674c0.154-2.129,0.008-4.273,0.061-6.41c0.021-0.906-0.204-1.371-1.451-1.335
	C6.635,1.747,4.042,1.724,1.454,1.687c-0.95-0.014-1.312,0.236-1.309,1.077c0.028,8.665,0.037,17.331-0.006,25.996
	c-0.005,1.006,0.513,1.109,1.472,1.095c2.52-0.038,5.044-0.059,7.563,0.009c1.178,0.032,1.523-0.316,1.496-1.283
	c-0.063-2.251,0.084-4.509-0.039-6.757c-0.08-1.468,0.933-1.374,2.061-1.351c1.072,0.021,2.11-0.199,2.09,1.318
	c-0.093,6.469-0.095,12.94-0.015,19.409c0.021,1.576-1.051,1.375-2.229,1.43c-1.354,0.062-1.972-0.246-1.906-1.527
	c0.111-2.191-0.021-4.39,0.039-6.584c0.027-0.969-0.334-1.325-1.508-1.295c-2.52,0.063-5.043,0.049-7.563,0.012
	c-0.988-0.014-1.474,0.165-1.465,1.134c0.072,8.892,0.095,17.785,0.132,26.678c2.656-0.004,5.311-0.032,7.966-0.005
	c1.292,0.013,1.858-0.446,1.834-1.55c-0.041-1.904-0.013-3.809-0.009-5.714c0.001-0.626-0.142-1.295,0.648-1.708
	c4.045-0.124,4.041-0.124,4.041,3.234c0,5.721-0.021,11.441,0.028,17.162c0.011,1.17-0.188,1.783-1.868,1.738
	c-1.556-0.041-2.395-0.204-2.289-1.766c0.143-2.131,0.002-4.275,0.053-6.412c0.021-0.906-0.199-1.387-1.447-1.358
	c-2.588,0.06-5.18,0.024-7.77-0.005c-0.941-0.011-1.313,0.274-1.311,1.114c0.024,8.726,0.018,17.451-0.003,26.176
	c-0.002,0.744,0.308,1.013,1.19,1.002c2.658-0.031,5.318-0.049,7.975,0.015c1.125,0.027,1.381-0.362,1.366-1.215
	c-0.036-2.311,0.093-4.626-0.028-6.933c-0.074-1.428,0.937-1.258,1.961-1.235c1.028,0.022,2.188-0.319,2.173,1.244
	c-0.07,6.472-0.068,12.944-0.001,19.415c0.015,1.444-0.903,1.364-2.082,1.359c-1.184-0.006-2.143,0.048-2.067-1.389
	c0.113-2.191-0.008-4.391,0.055-6.586c0.029-0.997-0.253-1.474-1.58-1.429c-2.519,0.085-5.043,0.072-7.564,0.032
	c-1.061-0.017-1.401,0.284-1.397,1.194c0.034,8.61,0.029,17.22,0.002,25.83c-0.002,0.893,0.342,1.22,1.415,1.199
	c2.521-0.049,5.046-0.073,7.564,0.015c1.356,0.048,1.591-0.473,1.57-1.438c-0.049-2.195,0.075-4.396-0.066-6.585
	c-0.096-1.466,0.873-1.401,2.037-1.368c1.073,0.029,2.143-0.231,2.123,1.292c-0.084,6.471-0.086,12.944-0.025,19.415
	c0.013,1.459-0.999,1.336-2.115,1.374c-1.232,0.042-2.082-0.075-2.011-1.446c0.112-2.192-0.033-4.393,0.055-6.586
	c0.044-1.083-0.405-1.397-1.639-1.362c-2.451,0.07-4.907,0.055-7.361,0.013c-1.074-0.018-1.569,0.182-1.564,1.232
	c0.048,8.553,0.05,17.105,0.004,25.657c-0.006,1.105,0.486,1.377,1.675,1.35c2.452-0.056,4.909-0.068,7.36-0.004
	c1.18,0.031,1.532-0.331,1.508-1.293c-0.055-2.252,0.093-4.51-0.033-6.759c-0.084-1.497,0.967-1.331,2.079-1.34
	c1.14-0.01,2.083-0.101,2.065,1.36c-0.08,6.414-0.078,12.829,0.004,19.242c0.02,1.442-0.873,1.382-2.041,1.374
	c-1.144-0.009-2.174,0.122-2.107-1.345c0.102-2.25-0.018-4.506,0.04-6.759c0.024-0.967-0.349-1.322-1.52-1.292
	c-2.52,0.062-5.044,0.048-7.565,0.002c-1.035-0.019-1.456,0.25-1.453,1.173c0.028,8.667,0.03,17.335,0.002,26.002
	c-0.003,0.916,0.379,1.204,1.429,1.185c2.521-0.047,5.045-0.058,7.565,0.003c1.15,0.028,1.566-0.286,1.54-1.273
	c-0.062-2.252,0.062-4.51-0.043-6.759c-0.067-1.447,0.928-1.368,2.089-1.367c1.156,0.001,2.068-0.08,2.051,1.371
	c-0.08,6.413-0.074,12.828,0.01,19.241c0.018,1.453-0.912,1.382-2.063,1.365c-1.102-0.017-2.18,0.17-2.098-1.332
	c0.125-2.249-0.002-4.507,0.057-6.759c0.023-0.956-0.329-1.328-1.51-1.299c-2.452,0.061-4.908,0.046-7.36-0.008
	c-1.175-0.025-1.683,0.225-1.677,1.344c0.051,8.552,0.048,17.104,0.003,25.656c-0.005,1.031,0.444,1.263,1.544,1.241
	c2.453-0.049,4.909-0.057,7.36,0.015c1.232,0.036,1.686-0.277,1.642-1.36c-0.087-2.135,0.059-4.278-0.057-6.412
	c-0.071-1.334,0.522-1.697,2.009-1.635c1.282,0.053,2.163,0.067,2.145,1.535c-0.081,6.414-0.084,12.83-0.008,19.242
	c0.019,1.49-0.989,1.314-2.097,1.324c-1.146,0.01-2.143,0.109-2.047-1.369c0.142-2.189,0.015-4.391,0.059-6.586
	c0.02-0.955-0.195-1.494-1.562-1.445c-2.518,0.088-5.044,0.061-7.564,0.014c-1.059-0.021-1.426,0.285-1.423,1.191
	c0.028,8.609,0.03,17.221-0.001,25.83c-0.004,0.893,0.299,1.227,1.383,1.207c2.589-0.045,5.181-0.035,7.77,0.021
	c1.113,0.025,1.394-0.377,1.379-1.238c-0.039-2.252,0.086-4.508-0.023-6.758c-0.068-1.43,0.864-1.395,2.059-1.396
	c1.186,0,2.088-0.064,2.074,1.373c-0.064,6.412-0.068,12.828,0.023,19.24c0.023,1.574-1.037,1.371-2.211,1.42
	c-1.279,0.053-2.03-0.08-1.95-1.447c0.13-2.248-0.011-4.506,0.036-6.76c0.018-0.883-0.299-1.219-1.39-1.191
	c-2.589,0.059-5.182,0.059-7.77,0.002c-1.091-0.023-1.383,0.309-1.379,1.197c0.034,8.609,0.044,17.219,0.002,25.83
	c-0.005,1.014,0.406,1.309,1.526,1.285c2.453-0.051,4.91-0.082,7.36-0.016c1.245,0.033,1.687-0.295,1.651-1.367
	c-0.073-2.25,0.064-4.508-0.042-6.758c-0.076-1.619,1.159-1.307,2.29-1.381c1.258-0.084,1.85,0.186,1.841,1.391
	c-0.052,6.473-0.065,12.945,0.017,19.416c0.02,1.461-0.922,1.365-2.061,1.344c-1.09-0.02-2.182,0.191-2.096-1.314
	c0.125-2.193-0.006-4.393,0.061-6.586c0.032-1.047-0.197-1.57-1.663-1.504c-2.515,0.113-5.043,0.061-7.564,0.016
	c-0.959-0.016-1.314,0.236-1.312,1.076c0.026,8.668,0.025,17.336-0.002,26.002c-0.002,0.826,0.323,1.111,1.293,1.098
	c2.657-0.037,5.317-0.039,7.974,0.006c1.026,0.016,1.269-0.367,1.256-1.146c-0.037-2.311,0.057-4.625-0.041-6.932
	c-0.058-1.336,0.834-1.348,1.945-1.301c1.043,0.043,2.211-0.291,2.196,1.256c-0.063,6.588-0.071,13.176-0.019,19.762
	c0.012,1.543-1.217,1.055-2.099,1.096c-0.968,0.043-2.077,0.266-2.014-1.186c0.101-2.309-0.041-4.623,0.028-6.934
	c0.031-1.016-0.407-1.271-1.537-1.244c-2.52,0.061-5.045,0.053-7.565,0.002c-1.023-0.021-1.429,0.18-1.424,1.139
	c0.039,8.609,0.029,17.219-0.001,25.83c-0.003,0.869,0.258,1.234,1.37,1.209c2.588-0.059,5.181-0.049,7.769,0.004
	c1.081,0.02,1.414-0.311,1.394-1.203c-0.051-2.309,0.066-4.623-0.027-6.932c-0.064-1.574,1.175-1.193,2.193-1.244
	c1.102-0.055,1.953-0.043,1.94,1.295c-0.063,6.471-0.071,12.943,0.007,19.414c0.018,1.455-0.928,1.367-2.074,1.369
	c-1.149,0.004-2.148,0.098-2.073-1.363c0.114-2.248-0.032-4.506,0.04-6.758c0.031-1.002-0.387-1.297-1.526-1.27
	c-2.52,0.059-5.046,0.074-7.565,0c-1.239-0.035-1.453,0.406-1.449,1.322c0.032,8.551,0.036,17.105,0.008,25.656
	c-0.003,0.863,0.215,1.236,1.342,1.209c2.588-0.064,5.181-0.059,7.769-0.002c1.072,0.021,1.424-0.275,1.406-1.182
	c-0.052-2.309,0.094-4.625-0.025-6.932c-0.082-1.578,1.127-1.25,2.146-1.26c0.98-0.012,1.994-0.24,1.977,1.215
	c-0.077,6.529-0.059,13.059,0.013,19.59c0.017,1.48-1.011,1.299-2.126,1.326c-1.218,0.029-2.105-0.004-2.027-1.42
	c0.127-2.248,0.002-4.506,0.053-6.76c0.021-0.881-0.301-1.232-1.391-1.211c-2.589,0.053-5.181,0.059-7.77,0.004
	c-1.106-0.023-1.369,0.342-1.366,1.215c0.03,8.609,0.025,17.219,0.005,25.83c-0.002,0.77,0.187,1.158,1.238,1.137
	c2.656-0.055,5.317-0.064,7.973,0.002c1.187,0.029,1.328-0.449,1.315-1.258c-0.038-2.254,0.072-4.51-0.053-6.76
	c-0.08-1.434,0.85-1.424,2.033-1.373c1.053,0.047,2.143-0.248,2.125,1.289c-0.082,6.527-0.068,13.059-0.014,19.588
	c0.012,1.357-0.904,1.283-1.98,1.268c-1.102-0.018-2.213,0.17-2.152-1.32c0.092-2.25-0.021-4.508,0.037-6.76
	c0.027-1-0.258-1.461-1.583-1.422c-2.45,0.076-4.908,0.047-7.36-0.021c-1.268-0.035-1.596,0.355-1.59,1.412
	c0.047,8.494,0.047,16.988-0.014,25.482c-0.008,1.164,0.423,1.475,1.733,1.43c2.382-0.078,4.776-0.105,7.154,0.008
	c1.449,0.068,1.697-0.43,1.667-1.488c-0.065-2.195,0.093-4.396-0.037-6.586c-0.091-1.514,0.987-1.297,2.079-1.326
	c1.162-0.031,2.126-0.084,2.072,1.35c-0.102,2.771,0.004,5.549-0.061,8.32c-0.023,1.02,0.299,1.416,1.6,1.418
	c1.314,0.002,1.592-0.41,1.578-1.424c-0.056-3.697-0.047-7.398,0.004-11.094c0.014-0.961-0.328-1.336-1.508-1.309
	c-2.451,0.063-4.91,0.08-7.36-0.002c-1.351-0.045-1.58,0.461-1.553,1.439c0.06,2.193-0.07,4.395,0.054,6.586
	c0.071,1.268-0.608,1.494-1.82,1.357c-0.998-0.109-2.344,0.496-2.321-1.264c0.088-6.76,0.074-13.521-0.008-20.283
	c-0.018-1.492,1-1.318,2.096-1.334c1.143-0.014,2.128-0.09,2.065,1.373c-0.106,2.418,0.02,4.846,0.048,7.27
	c2.206,0.523,4.465,0.295,6.702,0.314c3.08,0.029,3.101,0.004,3.103-2.555c0.008-6.982,0.022-13.963-0.033-20.945
	c-0.008-0.965,0.482-2.043-0.723-2.908c-0.326-0.234,0.549-0.162,0.801-0.344c-2.922-0.035-5.844-0.039-8.766-0.113
	c-1.095-0.027-1.201,0.461-1.193,1.188c0.027,2.193-0.122,4.396,0.058,6.58c0.135,1.637-0.937,1.557-2.248,1.607
	c-1.336,0.051-1.916-0.203-1.901-1.494c0.074-6.699,0.077-13.4-0.001-20.1c-0.016-1.365,0.712-1.48,1.973-1.436
	c1.189,0.043,2.28-0.141,2.172,1.443c-0.154,2.244-0.002,4.504-0.06,6.756c-0.023,0.887,0.289,1.227,1.382,1.193
	c2.583-0.078,5.171-0.064,7.759-0.088c0.605-0.926,0.799-1.908,0.791-2.971c-0.037-4.943,0.064-9.891-0.036-14.832
	c-0.06-2.912,0.491-5.852-0.399-8.74c-0.111-0.359,0.348-0.422,0.654-0.521c-2.973-0.35-5.962-0.023-8.94-0.16
	c-1.067-0.049-1.201,0.461-1.191,1.195c0.031,2.246-0.088,4.5,0.048,6.742c0.093,1.553-0.977,1.439-2.187,1.455
	c-1.212,0.016-2-0.031-1.98-1.432c0.094-6.627,0.123-13.258-0.002-19.885c-0.031-1.633,0.934-1.523,2.221-1.594
	c1.533-0.084,2.012,0.385,1.938,1.682c-0.126,2.186-0.034,4.379-0.044,6.568c-0.002,0.617,0.019,1.16,1.038,1.125
	c2.973-0.1,5.96,0.273,8.923-0.197c-0.006-9.084-0.01-18.166-0.012-27.248c-2.791,0.02-5.586,0.092-8.375,0.031
	c-1.283-0.025-1.637,0.348-1.596,1.395c0.086,2.191-0.075,4.395,0.069,6.582c0.096,1.461-0.88,1.453-2.041,1.4
	c-1.025-0.047-2.13,0.246-2.109-1.314c0.092-6.756,0.078-13.514-0.012-20.27c-0.019-1.406,0.897-1.314,1.939-1.279
	c1.005,0.035,2.275-0.348,2.214,1.23c-0.088,2.307-0.004,4.619-0.031,6.93c-0.009,0.723,0.087,1.26,1.173,1.213
	c2.984-0.133,5.979,0.189,8.958-0.162c-0.535-0.121-0.87-0.324-0.538-0.85c0.406-0.641,0.307-1.344,0.307-2.029
	c0.002-7.07-0.02-14.143,0.012-21.213c0.004-1.064-0.186-2.047-0.791-2.973c-2.586-0.021-5.174-0.01-7.758-0.086
	c-1.091-0.033-1.406,0.301-1.383,1.191c0.058,2.252-0.094,4.51,0.06,6.754c0.108,1.58-0.977,1.404-2.169,1.447
	c-1.259,0.043-1.992-0.066-1.976-1.434c0.078-6.699,0.074-13.398,0.001-20.096c-0.014-1.281,0.547-1.559,1.893-1.5
	c1.301,0.053,2.396-0.047,2.256,1.6c-0.181,2.125,0.017,4.271-0.076,6.406c-0.046,1.066,0.356,1.422,1.61,1.387
	c2.382-0.063,4.769-0.051,7.152,0.012c1.188,0.031,1.682-0.221,1.674-1.334c-0.051-8.26-0.041-16.518-0.014-24.775
	c0.002-0.859-0.21-1.246-1.344-1.217c-2.52,0.064-5.042,0.064-7.561,0.002c-1.166-0.031-1.534,0.297-1.501,1.277
	c0.074,2.25-0.067,4.51,0.059,6.756c0.083,1.484-0.969,1.344-2.083,1.352c-1.131,0.01-2.092,0.113-2.074-1.352
	c0.081-6.758,0.094-13.514,0.009-20.27c-0.022-1.76,1.338-1.152,2.331-1.264c1.215-0.135,1.881,0.113,1.81,1.371
	c-0.123,2.189,0.006,4.389-0.056,6.582c-0.028,0.982,0.211,1.494,1.557,1.432c2.24-0.102,4.49-0.072,6.736-0.096
	c0.301-0.975,1.741-1.203,1.711-2.596c-0.172-8.215-0.099-16.434-0.107-24.65c-2.854-0.025-5.707-0.02-8.559-0.094
	c-1.142-0.031-1.348,0.404-1.331,1.238c0.045,2.307-0.066,4.615,0.044,6.916c0.07,1.436-0.984,1.24-1.99,1.215
	c-1.013-0.023-2.165,0.328-2.147-1.25c0.081-6.801,0.075-13.604,0-20.406c-0.018-1.598,1.201-1.176,2.17-1.207
	c0.985-0.031,2.062-0.23,1.981,1.217c-0.127,2.244,0.006,4.496-0.06,6.744c-0.03,0.998,0.25,1.49,1.57,1.406
	c2.885-0.184,5.797,0.281,8.668-0.262c-1.259-0.564-0.261-1.414-0.268-2.08c-0.086-7.543-0.104-15.09-0.029-22.634
	c0.018-1.637-0.723-2.052-2.527-2.057c-2.285-0.006-4.611,0.387-6.869-0.259c-0.943,0.294-0.494,0.983-0.507,1.478
	c-0.056,2.25-0.085,4.503-0.001,6.752c0.052,1.393-1.06,1.115-1.921,1.041c-0.825-0.07-2.186,0.619-2.18-0.971
	c0.026-6.985,0.017-13.97,0.006-20.955c-0.003-1.58,1.384-0.859,2.215-0.95c0.922-0.101,1.934-0.245,1.882,1.094
	c-0.088,2.249-0.053,4.502-0.002,6.752c0.011,0.502-0.423,1.179,0.49,1.493c2.32-0.66,4.709-0.24,7.061-0.269
	c1.768-0.021,2.359-0.53,2.347-2.03c-0.063-7.193-0.048-14.387,0.01-21.58c0.011-1.372-0.048-2.614-1.603-3.408
	c-2.313-0.02-4.625-0.003-6.935-0.077c-1.064-0.034-1.429,0.25-1.403,1.17c0.065,2.306-0.094,4.619,0.059,6.919
	c0.104,1.578-1.057,1.268-2.092,1.284c-1.069,0.018-2.086,0.234-2.064-1.298c0.097-6.748,0.107-13.498-0.003-20.245
	c-0.028-1.704,1.172-1.242,2.235-1.335c1.309-0.115,1.987,0.113,1.912,1.443c-0.127,2.244,0.016,4.498-0.042,6.746
	c-0.023,0.888,0.265,1.233,1.366,1.196c2.31-0.077,4.625-0.057,6.935-0.077c0.507-0.736,1.672-0.96,1.656-2.162
	c-0.094-7.71-0.068-15.421-0.031-23.132c0.006-1.283-0.614-1.733-2.073-1.702C12.779,144.309,10.199,144.274,7.62,144.276"/>
</svg>
