<?xml version="1.0" encoding="utf-8"?>
<!-- Generator: Adobe Illustrator 16.2.0, SVG Export Plug-In . SVG Version: 6.00 Build 0)  -->
<!DOCTYPE svg PUBLIC "-//W3C//DTD SVG 1.1//EN" "http://www.w3.org/Graphics/SVG/1.1/DTD/svg11.dtd">
<svg version="1.1" id="Layer_1" xmlns="http://www.w3.org/2000/svg" xmlns:xlink="http://www.w3.org/1999/xlink" x="0px" y="0px"
	 width="17.915px" height="441.394px" viewBox="0 0 17.915 441.394" enable-background="new 0 0 17.915 441.394"
	 xml:space="preserve">
<path fill="#E8E8E8" d="M10.417,297.118c0.036-2.534,0.191-5.073,0.064-7.603c-0.077-1.544,0.896-1.471,2.135-1.461
	c1.148,0.008,2.043-0.108,2.023,1.36c-0.093,6.747-0.094,13.496,0,20.243c0.02,1.469-0.871,1.366-2.017,1.354
	c-1.187-0.014-2.247,0.145-2.146-1.44c0.146-2.296-0.019-4.606-0.052-6.911c-2.273-1.153-4.777-0.572-7.18-0.647
	c-2.517-0.078-2.615,0.063-2.619,2.246c-0.008,7.203,0.041,14.405-0.043,21.606c-0.016,1.318,0.281,2.325,1.613,3.036
	c2.314,0.026,4.629,0.018,6.94,0.091c1.077,0.034,1.424-0.307,1.404-1.197c-0.051-2.31,0.084-4.623-0.053-6.928
	c-0.085-1.443,0.936-1.296,1.956-1.236c0.946,0.055,2.209-0.463,2.19,1.182c-0.079,6.814-0.079,13.628-0.002,20.442
	c0.018,1.588-1.152,1.206-2.161,1.237c-1.025,0.032-2.047,0.195-1.974-1.228c0.115-2.248-0.021-4.504,0.052-6.754
	c0.033-1.011-0.236-1.46-1.566-1.404c-2.513,0.107-5.034,0.076-7.551,0.103c-0.658,0.909-0.822,1.897-0.817,2.959
	c0.03,7.297,0.02,14.595,0.016,21.892c0,0.741,0.131,1.5-0.328,2.194c3.142,0.615,6.324,0.182,9.486,0.237
	c0.924,0.017,0.727-0.702,0.731-1.182c0.02-2.253,0.11-4.511-0.033-6.757c-0.091-1.437,0.799-1.427,1.999-1.396
	c1.171,0.03,2.182-0.173,2.156,1.424c-0.106,6.643-0.086,13.287,0.007,19.931c0.02,1.421-0.676,1.576-2.056,1.562
	c-1.32-0.014-2.174-0.056-2.11-1.522c0.109-2.478-0.023-4.962-0.054-7.444c-2.445-0.005-4.891,0.05-7.333-0.035
	c-1.799-0.063-2.525,0.424-2.506,2.061c0.084,7.483,0.063,14.968-0.006,22.452c-0.008,0.739,0.672,1.521-0.074,2.242
	c2.914,0.309,5.839,0.064,8.756,0.138c1.214,0.029,1.281-0.528,1.272-1.304c-0.028-2.25,0.064-4.504-0.036-6.752
	c-0.076-1.71,1.353-1.197,2.372-1.29c1.046-0.096,1.77,0.007,1.757,1.24c-0.069,6.811-0.079,13.622,0.003,20.434
	c0.019,1.519-1.014,1.294-2.104,1.313c-1.155,0.022-2.132,0.096-2.044-1.369c0.137-2.246-0.01-4.502,0.064-6.752
	c0.033-0.993-0.38-1.295-1.519-1.264c-2.788,0.075-5.579,0.062-8.368,0.085c-0.012,8.039-0.017,16.079-0.043,24.119
	c-0.002,0.967,0.184,1.955-0.262,2.897c3.033,0.471,6.094,0.077,9.139,0.206c0.999,0.043,1.03-0.525,1.027-1.149
	c-0.011-2.253,0.076-4.51-0.029-6.759c-0.06-1.31,0.617-1.567,1.953-1.467c1.125,0.085,2.232-0.226,2.205,1.411
	c-0.111,6.7-0.111,13.403-0.013,20.103c0.025,1.674-1.173,1.299-2.25,1.357c-1.133,0.063-1.97-0.013-1.897-1.337
	c0.12-2.19-0.035-4.392,0.069-6.584c0.055-1.167-0.451-1.487-1.749-1.45c-2.451,0.068-4.907,0.045-7.359,0.012
	c-0.943-0.014-1.322,0.229-1.312,1.083c0.042,3.869,0.053,7.741-0.013,11.61c-0.018,1.086,0.692,1.01,1.556,1.032
	c0.999,0.025,1.671-0.044,1.639-1.16c-0.079-2.771,0.06-5.548-0.069-8.316c-0.063-1.383,0.584-1.617,2.022-1.611
	c1.47,0.006,2.261,0.176,2.151,1.674c-0.154,2.129-0.008,4.273-0.061,6.41c-0.021,0.906,0.204,1.371,1.451,1.335
	c2.586-0.074,5.178-0.051,7.767-0.014c0.95,0.014,1.312-0.236,1.309-1.077c-0.028-8.665-0.037-17.331,0.006-25.996
	c0.005-1.006-0.513-1.109-1.472-1.095c-2.52,0.037-5.044,0.059-7.563-0.01c-1.178-0.031-1.523,0.316-1.496,1.283
	c0.063,2.251-0.084,4.509,0.039,6.757c0.08,1.469-0.933,1.374-2.061,1.352c-1.072-0.021-2.11,0.198-2.09-1.318
	c0.093-6.469,0.095-12.939,0.015-19.409c-0.021-1.576,1.051-1.375,2.229-1.43c1.354-0.063,1.972,0.246,1.906,1.527
	c-0.111,2.19,0.021,4.39-0.039,6.584c-0.027,0.969,0.334,1.324,1.508,1.295c2.52-0.063,5.043-0.049,7.563-0.013
	c0.988,0.015,1.474-0.165,1.465-1.134c-0.072-8.892-0.095-17.785-0.132-26.678c-2.656,0.004-5.311,0.032-7.966,0.005
	c-1.292-0.013-1.858,0.446-1.834,1.55c0.041,1.904,0.013,3.81,0.009,5.714c-0.001,0.626,0.142,1.295-0.648,1.708
	c-4.045,0.124-4.041,0.124-4.041-3.233c0-5.722,0.021-11.441-0.028-17.162c-0.011-1.17,0.188-1.783,1.868-1.738
	c1.556,0.041,2.395,0.204,2.289,1.767c-0.143,2.131-0.002,4.274-0.053,6.411c-0.021,0.906,0.199,1.388,1.447,1.358
	c2.588-0.06,5.18-0.024,7.77,0.005c0.941,0.011,1.313-0.273,1.311-1.114c-0.024-8.726-0.018-17.45,0.003-26.176
	c0.002-0.744-0.308-1.013-1.19-1.002c-2.658,0.031-5.318,0.049-7.975-0.015c-1.125-0.027-1.381,0.361-1.366,1.215
	c0.036,2.311-0.093,4.626,0.028,6.933c0.074,1.429-0.937,1.259-1.961,1.235c-1.028-0.022-2.188,0.319-2.173-1.244
	c0.07-6.472,0.068-12.944,0.001-19.415c-0.015-1.444,0.903-1.364,2.082-1.358c1.184,0.006,2.143-0.049,2.067,1.389
	c-0.113,2.19,0.008,4.391-0.055,6.586c-0.029,0.997,0.253,1.474,1.58,1.429c2.519-0.085,5.043-0.072,7.564-0.032
	c1.061,0.018,1.401-0.283,1.397-1.193c-0.034-8.61-0.029-17.22-0.002-25.83c0.002-0.894-0.342-1.22-1.415-1.199
	c-2.521,0.049-5.046,0.073-7.564-0.015c-1.356-0.048-1.591,0.473-1.57,1.438c0.049,2.195-0.075,4.396,0.066,6.585
	c0.096,1.466-0.873,1.401-2.037,1.368c-1.073-0.029-2.143,0.231-2.123-1.292c0.084-6.471,0.086-12.944,0.025-19.415
	c-0.013-1.459,0.999-1.336,2.115-1.374c1.232-0.042,2.082,0.075,2.011,1.446c-0.112,2.191,0.033,4.393-0.055,6.586
	c-0.044,1.083,0.405,1.396,1.639,1.362c2.451-0.07,4.907-0.056,7.361-0.014c1.074,0.019,1.569-0.182,1.564-1.231
	c-0.048-8.554-0.05-17.105-0.004-25.657c0.006-1.105-0.486-1.377-1.675-1.35c-2.452,0.056-4.909,0.067-7.36,0.004
	c-1.18-0.031-1.532,0.331-1.508,1.293c0.055,2.252-0.093,4.51,0.033,6.759c0.084,1.497-0.967,1.331-2.079,1.34
	c-1.14,0.01-2.083,0.102-2.065-1.36c0.08-6.413,0.078-12.828-0.004-19.241c-0.02-1.442,0.873-1.383,2.041-1.374
	c1.144,0.009,2.174-0.122,2.107,1.345c-0.102,2.25,0.018,4.506-0.04,6.759c-0.024,0.967,0.349,1.322,1.52,1.292
	c2.52-0.062,5.044-0.048,7.565-0.002c1.035,0.02,1.456-0.25,1.453-1.173c-0.028-8.667-0.03-17.335-0.002-26.002
	c0.003-0.916-0.379-1.204-1.429-1.186c-2.521,0.048-5.045,0.059-7.565-0.003c-1.15-0.027-1.566,0.286-1.54,1.273
	c0.062,2.252-0.062,4.51,0.043,6.759c0.067,1.447-0.928,1.368-2.089,1.367c-1.156-0.001-2.068,0.08-2.051-1.371
	c0.08-6.413,0.074-12.828-0.01-19.241c-0.018-1.453,0.912-1.382,2.063-1.364c1.102,0.017,2.18-0.171,2.098,1.332
	c-0.125,2.248,0.002,4.507-0.057,6.759c-0.023,0.956,0.329,1.328,1.51,1.299c2.452-0.062,4.908-0.046,7.36,0.008
	c1.175,0.025,1.683-0.225,1.677-1.344c-0.051-8.552-0.048-17.104-0.003-25.656c0.005-1.031-0.444-1.263-1.544-1.241
	c-2.453,0.049-4.909,0.058-7.36-0.015c-1.232-0.036-1.686,0.277-1.642,1.36c0.087,2.135-0.059,4.277,0.057,6.411
	c0.071,1.334-0.522,1.697-2.009,1.636c-1.282-0.054-2.163-0.067-2.145-1.535c0.081-6.414,0.084-12.83,0.008-19.242
	c-0.019-1.49,0.989-1.314,2.097-1.324c1.146-0.01,2.143-0.109,2.047,1.369c-0.142,2.189-0.015,4.391-0.059,6.586
	c-0.02,0.955,0.195,1.494,1.562,1.445c2.518-0.088,5.044-0.061,7.564-0.014c1.059,0.021,1.426-0.285,1.423-1.191
	c-0.028-8.609-0.03-17.221,0.001-25.83c0.004-0.893-0.299-1.227-1.383-1.207c-2.589,0.045-5.181,0.035-7.77-0.021
	c-1.113-0.025-1.394,0.377-1.379,1.238c0.039,2.252-0.086,4.508,0.023,6.758c0.068,1.43-0.864,1.395-2.059,1.396
	c-1.186,0-2.088,0.064-2.074-1.373c0.064-6.412,0.068-12.828-0.023-19.24c-0.023-1.574,1.037-1.371,2.211-1.42
	c1.279-0.053,2.03,0.08,1.95,1.447c-0.13,2.248,0.011,4.506-0.036,6.76c-0.018,0.883,0.299,1.219,1.39,1.191
	c2.589-0.059,5.182-0.059,7.77-0.002c1.091,0.023,1.383-0.309,1.379-1.197c-0.034-8.609-0.044-17.219-0.002-25.83
	c0.005-1.014-0.406-1.309-1.526-1.285c-2.453,0.051-4.91,0.082-7.36,0.016c-1.245-0.033-1.687,0.295-1.651,1.367
	c0.073,2.25-0.064,4.508,0.042,6.758c0.076,1.619-1.159,1.307-2.29,1.381c-1.258,0.084-1.85-0.186-1.841-1.391
	c0.052-6.473,0.065-12.945-0.017-19.416c-0.02-1.461,0.922-1.365,2.061-1.344c1.09,0.02,2.182-0.191,2.096,1.314
	c-0.125,2.193,0.006,4.393-0.061,6.586c-0.032,1.047,0.197,1.57,1.663,1.504c2.515-0.113,5.043-0.061,7.564-0.016
	c0.959,0.016,1.314-0.236,1.312-1.076c-0.026-8.668-0.025-17.336,0.002-26.002c0.002-0.826-0.323-1.111-1.293-1.098
	c-2.657,0.037-5.317,0.039-7.974-0.006c-1.026-0.016-1.269,0.367-1.256,1.146c0.037,2.311-0.057,4.625,0.041,6.932
	c0.058,1.336-0.834,1.348-1.945,1.301c-1.043-0.043-2.211,0.291-2.196-1.256c0.063-6.588,0.071-13.176,0.019-19.762
	c-0.012-1.543,1.217-1.055,2.099-1.096c0.968-0.043,2.077-0.266,2.014,1.186c-0.101,2.309,0.041,4.623-0.028,6.934
	c-0.031,1.016,0.407,1.271,1.537,1.244c2.52-0.061,5.045-0.053,7.565-0.002c1.023,0.021,1.429-0.18,1.424-1.139
	c-0.039-8.609-0.029-17.219,0.001-25.83c0.003-0.869-0.258-1.234-1.37-1.209c-2.588,0.059-5.181,0.049-7.769-0.004
	c-1.081-0.02-1.414,0.311-1.394,1.203c0.051,2.309-0.066,4.623,0.027,6.932c0.064,1.574-1.175,1.193-2.193,1.244
	c-1.102,0.055-1.953,0.043-1.94-1.295c0.063-6.471,0.071-12.943-0.007-19.414c-0.018-1.455,0.928-1.367,2.074-1.369
	c1.149-0.004,2.148-0.098,2.073,1.363c-0.114,2.248,0.032,4.506-0.04,6.758c-0.031,1.002,0.387,1.297,1.526,1.27
	c2.52-0.059,5.046-0.074,7.565,0c1.239,0.035,1.453-0.406,1.449-1.322c-0.032-8.551-0.036-17.105-0.008-25.656
	c0.003-0.863-0.215-1.236-1.342-1.209c-2.588,0.064-5.181,0.059-7.769,0.002c-1.072-0.021-1.424,0.275-1.406,1.182
	c0.052,2.309-0.094,4.625,0.025,6.932c0.082,1.578-1.127,1.25-2.146,1.26c-0.98,0.012-1.994,0.24-1.977-1.215
	c0.077-6.529,0.059-13.059-0.013-19.59c-0.017-1.48,1.011-1.299,2.126-1.326c1.218-0.029,2.105,0.004,2.027,1.42
	c-0.127,2.248-0.002,4.506-0.053,6.76c-0.021,0.881,0.301,1.232,1.391,1.211c2.589-0.053,5.181-0.059,7.77-0.004
	c1.106,0.023,1.369-0.342,1.366-1.215C17.865,51.609,17.87,43,17.89,34.388c0.002-0.77-0.187-1.158-1.238-1.137
	c-2.656,0.055-5.317,0.064-7.973-0.002c-1.187-0.029-1.328,0.449-1.315,1.258c0.038,2.254-0.072,4.51,0.053,6.76
	c0.08,1.434-0.85,1.424-2.033,1.373c-1.053-0.047-2.143,0.248-2.125-1.289c0.082-6.527,0.068-13.059,0.014-19.588
	c-0.012-1.357,0.904-1.283,1.98-1.268c1.102,0.018,2.213-0.17,2.152,1.32c-0.092,2.25,0.021,4.508-0.037,6.76
	c-0.027,1,0.258,1.461,1.583,1.422c2.45-0.076,4.908-0.047,7.36,0.021c1.268,0.035,1.596-0.355,1.59-1.412
	c-0.047-8.494-0.047-16.988,0.014-25.482c0.008-1.164-0.423-1.475-1.733-1.43C13.799,1.773,11.405,1.8,9.027,1.687
	C7.578,1.619,7.33,2.117,7.36,3.175c0.065,2.195-0.093,4.396,0.037,6.586c0.091,1.514-0.987,1.297-2.079,1.326
	c-1.162,0.031-2.126,0.084-2.072-1.35c0.102-2.771-0.004-5.549,0.061-8.32C3.33,0.398,3.008,0.001,1.707,0
	C0.393-0.002,0.115,0.41,0.129,1.423c0.056,3.697,0.047,7.398-0.004,11.094c-0.014,0.961,0.328,1.336,1.508,1.309
	c2.451-0.063,4.91-0.08,7.36,0.002c1.351,0.045,1.58-0.461,1.553-1.439c-0.06-2.193,0.07-4.395-0.054-6.586
	c-0.071-1.268,0.608-1.494,1.82-1.357c0.998,0.109,2.344-0.496,2.321,1.264c-0.088,6.76-0.074,13.521,0.008,20.283
	c0.018,1.492-1,1.318-2.096,1.334c-1.143,0.014-2.128,0.09-2.065-1.373c0.106-2.418-0.02-4.846-0.048-7.27
	c-2.206-0.523-4.465-0.295-6.702-0.314c-3.08-0.029-3.101-0.004-3.103,2.555C0.619,27.906,0.604,34.886,0.66,41.869
	c0.008,0.965-0.482,2.043,0.723,2.908c0.326,0.234-0.549,0.162-0.801,0.344c2.922,0.035,5.844,0.039,8.766,0.113
	c1.095,0.027,1.201-0.461,1.193-1.188c-0.027-2.193,0.122-4.396-0.058-6.58c-0.135-1.637,0.937-1.557,2.248-1.607
	c1.336-0.051,1.916,0.203,1.901,1.494c-0.074,6.699-0.077,13.4,0.001,20.1c0.016,1.365-0.712,1.48-1.973,1.436
	c-1.189-0.043-2.28,0.141-2.172-1.443c0.154-2.244,0.002-4.504,0.06-6.756c0.023-0.887-0.289-1.227-1.382-1.193
	c-2.583,0.078-5.171,0.064-7.759,0.088c-0.605,0.926-0.799,1.908-0.791,2.971c0.037,4.943-0.064,9.891,0.036,14.832
	c0.06,2.912-0.491,5.852,0.399,8.74c0.111,0.359-0.348,0.422-0.654,0.521c2.973,0.35,5.962,0.023,8.94,0.16
	c1.067,0.049,1.201-0.461,1.191-1.195c-0.031-2.246,0.088-4.5-0.048-6.742c-0.093-1.553,0.977-1.439,2.187-1.455
	c1.212-0.016,2,0.031,1.98,1.432c-0.094,6.627-0.123,13.258,0.002,19.885c0.031,1.633-0.934,1.523-2.221,1.594
	c-1.533,0.084-2.012-0.385-1.938-1.682c0.126-2.186,0.034-4.379,0.044-6.568c0.002-0.617-0.019-1.16-1.038-1.125
	c-2.973,0.1-5.96-0.273-8.923,0.197c0.006,9.084,0.01,18.166,0.012,27.248c2.791-0.02,5.586-0.092,8.375-0.031
	c1.283,0.025,1.637-0.348,1.596-1.395c-0.086-2.191,0.075-4.395-0.069-6.582c-0.096-1.461,0.88-1.453,2.041-1.4
	c1.025,0.047,2.13-0.246,2.109,1.314c-0.092,6.756-0.078,13.514,0.012,20.27c0.019,1.406-0.897,1.314-1.939,1.279
	c-1.005-0.035-2.275,0.348-2.214-1.23c0.088-2.307,0.004-4.619,0.031-6.93c0.009-0.723-0.087-1.26-1.173-1.213
	c-2.984,0.133-5.979-0.189-8.958,0.162c0.535,0.121,0.87,0.324,0.538,0.85c-0.406,0.641-0.307,1.344-0.307,2.029
	c-0.002,7.07,0.02,14.143-0.012,21.213c-0.004,1.064,0.186,2.047,0.791,2.973c2.586,0.021,5.174,0.01,7.758,0.086
	c1.091,0.033,1.406-0.301,1.383-1.191c-0.058-2.252,0.094-4.51-0.06-6.754c-0.108-1.58,0.977-1.404,2.169-1.447
	c1.259-0.043,1.992,0.066,1.976,1.434c-0.078,6.699-0.074,13.398-0.001,20.096c0.014,1.281-0.547,1.559-1.893,1.5
	c-1.301-0.053-2.396,0.047-2.256-1.6c0.181-2.125-0.017-4.271,0.076-6.406c0.046-1.066-0.356-1.422-1.61-1.387
	c-2.382,0.063-4.769,0.051-7.152-0.012c-1.188-0.031-1.682,0.221-1.674,1.334c0.051,8.26,0.041,16.518,0.014,24.775
	c-0.002,0.859,0.21,1.246,1.344,1.217c2.52-0.064,5.042-0.064,7.561-0.002c1.166,0.031,1.534-0.297,1.501-1.277
	c-0.074-2.25,0.067-4.51-0.059-6.756c-0.083-1.484,0.969-1.344,2.083-1.352c1.131-0.01,2.092-0.113,2.074,1.352
	c-0.081,6.758-0.094,13.514-0.009,20.27c0.022,1.76-1.338,1.152-2.331,1.264c-1.215,0.135-1.881-0.113-1.81-1.371
	c0.123-2.189-0.006-4.389,0.056-6.582c0.028-0.982-0.211-1.494-1.557-1.432c-2.24,0.102-4.49,0.072-6.736,0.096
	c-0.301,0.975-1.741,1.203-1.711,2.596c0.172,8.215,0.099,16.434,0.107,24.65c2.854,0.025,5.707,0.02,8.559,0.094
	c1.142,0.031,1.348-0.404,1.331-1.238c-0.045-2.307,0.066-4.615-0.044-6.916c-0.07-1.436,0.984-1.24,1.99-1.215
	c1.013,0.023,2.165-0.328,2.147,1.25c-0.081,6.801-0.075,13.604,0,20.406c0.018,1.598-1.201,1.176-2.17,1.207
	c-0.985,0.031-2.062,0.23-1.981-1.217c0.127-2.244-0.006-4.496,0.06-6.744c0.03-0.998-0.25-1.49-1.57-1.406
	c-2.885,0.184-5.797-0.281-8.668,0.262c1.259,0.564,0.261,1.414,0.268,2.08c0.086,7.543,0.104,15.091,0.029,22.635
	c-0.018,1.637,0.723,2.052,2.527,2.057c2.285,0.006,4.611-0.387,6.869,0.259c0.943-0.294,0.494-0.982,0.507-1.478
	c0.056-2.25,0.085-4.503,0.001-6.752c-0.052-1.394,1.06-1.115,1.921-1.041c0.825,0.069,2.186-0.619,2.18,0.971
	c-0.026,6.985-0.017,13.97-0.006,20.955c0.003,1.58-1.384,0.859-2.215,0.95c-0.922,0.101-1.934,0.245-1.882-1.095
	c0.088-2.248,0.053-4.502,0.002-6.752c-0.011-0.502,0.423-1.179-0.49-1.492c-2.32,0.659-4.709,0.239-7.061,0.269
	c-1.768,0.021-2.359,0.53-2.347,2.03c0.063,7.192,0.048,14.387-0.01,21.58c-0.011,1.372,0.048,2.613,1.603,3.407
	c2.313,0.021,4.625,0.004,6.935,0.077c1.064,0.034,1.429-0.25,1.403-1.17c-0.065-2.306,0.094-4.619-0.059-6.919
	c-0.104-1.578,1.057-1.268,2.092-1.284c1.069-0.018,2.086-0.233,2.064,1.299c-0.097,6.747-0.107,13.497,0.003,20.244
	c0.028,1.704-1.172,1.242-2.235,1.335c-1.309,0.115-1.987-0.112-1.912-1.442c0.127-2.244-0.016-4.498,0.042-6.746
	c0.023-0.888-0.265-1.233-1.366-1.196c-2.31,0.077-4.625,0.058-6.935,0.077c-0.507,0.736-1.672,0.96-1.656,2.162
	c0.094,7.71,0.068,15.421,0.031,23.132c-0.006,1.283,0.614,1.733,2.073,1.702C5.258,297.085,7.838,297.12,10.417,297.118"/>
</svg>
