<?xml version="1.0" encoding="utf-8"?>
<!-- Generator: Adobe Illustrator 27.5.0, SVG Export Plug-In . SVG Version: 6.00 Build 0)  -->
<svg version="1.1" id="Layer_1" xmlns="http://www.w3.org/2000/svg" xmlns:xlink="http://www.w3.org/1999/xlink" x="0px" y="0px"
	 viewBox="0 0 400 400" style="enable-background:new 0 0 400 400;" xml:space="preserve">
<style type="text/css">
	.st0{fill:#14B7B2;}
</style>
<path class="st0" d="M183.6,67.9l-14-10.6c-1-0.7-1.7-1.8-2.1-3c-0.4-1.2-0.4-2.5,0-3.7c0.4-1.2,1.1-2.2,2.1-3
	c1-0.7,2.1-1.1,3.3-1.1h17.4l5.4-17.2c0.4-1.2,1.1-2.2,2.1-3c1-0.7,2.1-1.1,3.3-1.1c1.2,0,2.4,0.4,3.3,1.1c1,0.7,1.7,1.8,2.1,3
	l5.4,17.2h17.4c1.2,0,2.4,0.4,3.3,1.1c1,0.7,1.7,1.8,2.1,3c0.4,1.2,0.4,2.5,0,3.7c-0.4,1.2-1.1,2.2-2.1,3l-14,10.6l5.4,17.2
	c0.4,1.2,0.4,2.5,0,3.7s-1.1,2.2-2.1,3c-1,0.7-2.1,1.1-3.3,1.1c-1.2,0-2.4-0.4-3.3-1.1l-14-10.6l-14,10.6c-1,0.7-2.1,1.1-3.3,1.1
	c-1.2,0-2.4-0.4-3.3-1.1c-1-0.7-1.7-1.8-2.1-3c-0.4-1.2-0.4-2.5,0-3.7L183.6,67.9z M201,374.8c-69.5,0-126.1-56.6-126.1-126.1
	c0-69.5,56.6-126.1,126.1-126.1c69.5,0,126.1,56.6,126.1,126.1C327.1,318.3,270.5,374.8,201,374.8z M156.1,298.1
	c-13.3,9-23.5,21.7-29.4,36.6c20.6,17.9,47.1,27.8,74.4,27.8s53.7-9.9,74.4-27.8c-6-14.8-16.3-27.5-29.6-36.5
	c-13.2-9-28.8-13.8-44.8-13.8C185,284.4,169.3,289.2,156.1,298.1z M170.6,212.1c-4,6-6.2,13.1-6.2,20.3c0,9.7,3.9,19,10.7,25.8
	c6.8,6.9,16.1,10.7,25.8,10.7c7.2,0,14.3-2.1,20.3-6.2c6-4,10.7-9.7,13.5-16.4c2.8-6.7,3.5-14,2.1-21.1c-1.4-7.1-4.9-13.6-10-18.7
	c-5.1-5.1-11.6-8.6-18.7-10c-7.1-1.4-14.4-0.7-21.1,2.1C180.3,201.4,174.6,206.1,170.6,212.1z M314.8,248.7
	c0-62.7-51-113.8-113.8-113.8c-62.7,0-113.8,51-113.8,113.8c0,28.5,10.7,55.9,29.9,76.8c5.7-12.3,14.1-23.2,24.5-31.9
	c10.4-8.7,22.6-15,35.7-18.5c-9.5-5.2-17-13.5-21.3-23.4c-4.3-10-5.2-21.1-2.5-31.6c2.7-10.5,8.8-19.8,17.4-26.4
	c8.6-6.6,19.1-10.2,29.9-10.2c10.8,0,21.4,3.6,29.9,10.2c8.6,6.6,14.7,15.9,17.4,26.4c2.7,10.5,1.8,21.6-2.5,31.6
	c-4.3,9.9-11.8,18.2-21.3,23.4c13.1,3.5,25.3,9.8,35.7,18.5c10.4,8.7,18.8,19.6,24.5,31.9C304.1,304.6,314.8,277.2,314.8,248.7z
	 M259.7,85.4l14,10.6l-5.4,17.2c-0.4,1.2-0.4,2.5,0,3.7c0.4,1.2,1.1,2.2,2.1,3c1,0.7,2.1,1.1,3.3,1.1c1.2,0,2.4-0.4,3.3-1.1l14-10.6
	l14,10.6c1,0.7,2.1,1.1,3.3,1.1c1.2,0,2.4-0.4,3.3-1.1c1-0.7,1.7-1.8,2.1-3c0.4-1.2,0.4-2.5,0-3.7l-5.4-17.2l14-10.6
	c1-0.7,1.7-1.8,2.1-3c0.4-1.2,0.4-2.5,0-3.7c-0.4-1.2-1.1-2.2-2.1-3c-1-0.7-2.1-1.1-3.3-1.1H302l-5.4-17.2c-0.4-1.2-1.1-2.2-2.1-3
	c-1-0.7-2.1-1.1-3.3-1.1c-1.2,0-2.4,0.4-3.3,1.1c-1,0.7-1.7,1.8-2.1,3l-5.4,17.2h-17.4c-1.2,0-2.4,0.4-3.4,1.1c-1,0.7-1.7,1.8-2.1,3
	c-0.4,1.2-0.4,2.5,0,3.7C258,83.6,258.8,84.7,259.7,85.4z M93.3,96.1l-14-10.6c-1-0.7-1.7-1.8-2.1-3c-0.4-1.2-0.4-2.5,0-3.7
	s1.1-2.2,2.1-3c1-0.7,2.1-1.1,3.3-1.1H100l5.4-17.2c0.4-1.2,1.1-2.2,2.1-3c1-0.7,2.1-1.1,3.3-1.1c1.2,0,2.4,0.4,3.3,1.1
	c1,0.7,1.7,1.8,2.1,3l5.4,17.2h17.4c1.2,0,2.4,0.4,3.3,1.1c1,0.7,1.7,1.8,2.1,3c0.4,1.2,0.4,2.5,0,3.7c-0.4,1.2-1.1,2.2-2.1,3
	l-14,10.6l5.4,17.2c0.4,1.2,0.4,2.5,0,3.7c-0.4,1.2-1.1,2.2-2.1,3c-1,0.7-2.1,1.1-3.3,1.1c-1.2,0-2.4-0.4-3.3-1.1l-14-10.6l-14,10.6
	c-1,0.7-2.1,1.1-3.3,1.1s-2.4-0.4-3.3-1.1c-1-0.7-1.7-1.8-2.1-3c-0.4-1.2-0.4-2.5,0-3.7L93.3,96.1z M6,153.1l14,10.6l-5.4,17.2
	c-0.4,1.2-0.4,2.5,0,3.7c0.4,1.2,1.1,2.2,2.1,3c1,0.7,2.1,1.1,3.3,1.1s2.4-0.4,3.3-1.1l14-10.6l14,10.6c1,0.7,2.1,1.1,3.3,1.1
	c1.2,0,2.4-0.4,3.3-1.1c1-0.7,1.7-1.8,2.1-3s0.4-2.5,0-3.7l-5.4-17.2l14-10.6c1-0.7,1.7-1.8,2.1-3c0.4-1.2,0.4-2.5,0-3.7
	s-1.1-2.2-2.1-3c-1-0.7-2.1-1.1-3.3-1.1H48.2l-5.4-17.2c-0.4-1.2-1.1-2.2-2.1-3c-1-0.7-2.1-1.1-3.3-1.1c-1.2,0-2.4,0.4-3.3,1.1
	c-1,0.7-1.7,1.8-2.1,3l-5.4,17.2H9.3c-1.2,0-2.4,0.4-3.3,1.1c-1,0.7-1.7,1.8-2.1,3s-0.4,2.5,0,3.7S5,152.4,6,153.1z M347.1,163.7
	l-14-10.6c-1-0.7-1.7-1.8-2.1-3c-0.4-1.2-0.4-2.5,0-3.7c0.4-1.2,1.1-2.2,2.1-3c1-0.7,2.1-1.1,3.3-1.1h17.4l5.4-17.2
	c0.4-1.2,1.1-2.2,2.1-3c1-0.7,2.1-1.1,3.3-1.1s2.4,0.4,3.3,1.1c1,0.7,1.7,1.8,2.1,3l5.4,17.2h17.4c1.2,0,2.4,0.4,3.3,1.1
	c1,0.7,1.7,1.8,2.1,3c0.4,1.2,0.4,2.5,0,3.7c-0.4,1.2-1.1,2.2-2.1,3l-14,10.6l5.4,17.2c0.4,1.2,0.4,2.5,0,3.7
	c-0.4,1.2-1.1,2.2-2.1,3c-1,0.7-2.1,1.1-3.3,1.1c-1.2,0-2.4-0.4-3.3-1.1l-14-10.6l-14,10.6c-1,0.7-2.1,1.1-3.4,1.1
	c-1.2,0-2.4-0.4-3.3-1.1c-1-0.7-1.7-1.8-2.1-3c-0.4-1.2-0.4-2.5,0-3.7L347.1,163.7z"/>
</svg>
