<?xml version="1.0" encoding="utf-8"?>
<!-- Generator: Adobe Illustrator 27.5.0, SVG Export Plug-In . SVG Version: 6.00 Build 0)  -->
<svg version="1.1" id="Layer_1" xmlns="http://www.w3.org/2000/svg" xmlns:xlink="http://www.w3.org/1999/xlink" x="0px" y="0px"
	 viewBox="0 0 400 400" style="enable-background:new 0 0 400 400;" xml:space="preserve">
<style type="text/css">
	.st0{fill:#14B7B2;}
</style>
<path class="st0" d="M201,36.4c-90.2,0-163.6,73.4-163.6,163.6c0,89.8,73,163.6,163.6,163.6c90.2,0,163.6-73.4,163.6-163.6
	C364.6,109.6,291,36.4,201,36.4z M201,47c40.3,0,77,15.7,104.3,41.2L147.2,246.3c-5.1-2-10-3.3-14.8-3.8v-4c0-2.9-2.4-5.3-5.3-5.3
	c-2.9,0-5.3,2.4-5.3,5.3v4.3c-8.3,1.8-14.1,7.8-15.5,16.4h-2.8c-2.9,0-5.3,2.4-5.3,5.3c0,2.9,2.4,5.3,5.3,5.3h3.1
	c0.8,4.2,2.4,8.4,4.7,12.5l-22.1,22.1C63.6,277,48,240.3,48,200C48,115.6,116.6,47,201,47z M119.2,274.4
	c-6.9-15.5-1.3-25.9,19.7-19.7L119.2,274.4z M201,353c-40.3,0-77-15.7-104.3-41.2L312.8,95.7C338.4,123,354,159.7,354,200
	C354,284.4,285.4,353,201,353z"/>
<path class="st0" d="M86.4,182.5l4.5-1c1.5,10.3,6.1,21.2,20.4,23.3v5.7c0,7,10.6,7,10.6,0v-5.8c7.4-1.3,13.2-5.3,18-10.4l4.1,3.5
	c5.2,4.5,12.2-3.5,6.8-8l-4.4-3.8c2.3-3.4,4.4-6.9,6.4-10.3c2.7-4.5,5.2-8.8,7.9-12l4.5,4.3c5,4.8,12.3-2.8,7.3-7.7l-3.5-3.3
	c3.8-2.2,8.4-4.3,13.1-6.5c4.2-1.9,8.6-4,12.7-6.2l3.4,4.7c4.1,5.7,12.6-0.5,8.6-6.2l-3-4.1c7.7-5.7,13.2-12.9,13.2-23.1
	c0-1.5-0.1-2.8-0.4-4.2l5.3-1.5c6.7-1.9,3.8-12.1-2.9-10.2l-6.4,1.8c-4.6-6.8-12.3-11.5-20.2-14.3l2.9-8.2c1-2.7-0.5-5.8-3.2-6.7
	c-2.8-1-5.8,0.5-6.7,3.2l-3.2,9c-2.7-0.4-5.2-0.7-7.4-0.7c-7.1,0-13.6,0.9-19.7,2.5l-2.6-7.5c-2.3-6.6-12.3-3.1-10,3.4l2.6,7.4
	c-8.7,3.6-16.2,8.8-22.7,14.7l-4.6-4.5c-5-4.9-12.4,2.7-7.4,7.6l4.7,4.6c-6.4,7.4-11.3,15.5-15.1,23.3l-7.7-3
	c-6.5-2.5-10.3,7.3-3.8,9.8l7.3,2.8c-3.8,9.9-5.5,18.5-5.5,23.3c0,0.8,0,1.7,0,2.6l-5.9,1.3C77.4,173.6,79.6,184,86.4,182.5z
	 M206.3,115.6c0,12-14.6,18.8-28.8,25.3c-22.1,10.2-24.4,13.3-33.9,29.5c-7,12-14.3,24.3-27,24.3c-10.7,0-15.8-3.9-15.8-26.4
	c0-13,19.2-73.9,73.9-73.9C183.9,94.5,206.3,100.5,206.3,115.6z"/>
<path class="st0" d="M251.1,110.3c10.2,0,18.5-8.3,18.5-18.5s-8.3-18.5-18.5-18.5c-10.2,0-18.5,8.3-18.5,18.5
	S240.9,110.3,251.1,110.3z M251.1,83.9c4.4,0,7.9,3.6,7.9,7.9c0,4.4-3.6,7.9-7.9,7.9c-4.4,0-7.9-3.5-7.9-7.9
	C243.2,87.5,246.8,83.9,251.1,83.9z"/>
<path class="st0" d="M267,284.4c-10.2,0-18.5,8.3-18.5,18.5c0,10.2,8.3,18.5,18.5,18.5c10.2,0,18.5-8.3,18.5-18.5
	C285.4,292.7,277.2,284.4,267,284.4z M267,310.8c-4.4,0-7.9-3.6-7.9-7.9c0-4.4,3.6-7.9,7.9-7.9c4.4,0,7.9,3.6,7.9,7.9
	S271.3,310.8,267,310.8z"/>
<path class="st0" d="M311.8,152.5c5.8,0,10.6-4.7,10.6-10.6s-4.7-10.6-10.6-10.6s-10.6,4.7-10.6,10.6
	C301.3,147.8,306,152.5,311.8,152.5z"/>
<path class="st0" d="M187.8,126.1c4.4,0,7.9-3.5,7.9-7.9s-3.5-7.9-7.9-7.9c-4.4,0-7.9,3.5-7.9,7.9S183.4,126.1,187.8,126.1z"/>
<path class="st0" d="M293.4,242.2c4.4,0,7.9-3.5,7.9-7.9c0-4.4-3.5-7.9-7.9-7.9s-7.9,3.5-7.9,7.9C285.4,238.7,289,242.2,293.4,242.2
	z"/>
<path class="st0" d="M135,136.7c4.4,0,7.9-3.5,7.9-7.9s-3.5-7.9-7.9-7.9s-7.9,3.5-7.9,7.9C127.1,133.1,130.7,136.7,135,136.7z"/>
<path class="st0" d="M113.9,178.9c4.4,0,7.9-3.5,7.9-7.9s-3.5-7.9-7.9-7.9s-7.9,3.5-7.9,7.9S109.6,178.9,113.9,178.9z"/>
<path class="st0" d="M137.7,163.1c2.9,0,5.3-2.4,5.3-5.3c0-2.9-2.4-5.3-5.3-5.3c-2.9,0-5.3,2.4-5.3,5.3
	C132.4,160.7,134.8,163.1,137.7,163.1z"/>
<path class="st0" d="M158.8,120.8c2.9,0,5.3-2.4,5.3-5.3c0-2.9-2.4-5.3-5.3-5.3c-2.9,0-5.3,2.4-5.3,5.3
	C153.5,118.5,155.9,120.8,158.8,120.8z"/>
<path class="st0" d="M296,210.6c2.9,0,5.3-2.4,5.3-5.3c0-2.9-2.4-5.3-5.3-5.3c-2.9,0-5.3,2.4-5.3,5.3
	C290.7,208.2,293.1,210.6,296,210.6z"/>
<path class="st0" d="M185.2,300.3c2.9,0,5.3-2.4,5.3-5.3s-2.4-5.3-5.3-5.3s-5.3,2.4-5.3,5.3S182.3,300.3,185.2,300.3z"/>
<path class="st0" d="M153.5,291c3.6,0,6.6-3,6.6-6.6s-3-6.6-6.6-6.6c-3.6,0-6.6,3-6.6,6.6C146.9,288.1,149.9,291,153.5,291z"/>
<path class="st0" d="M266.3,215.4c-3.2,1.8-4.2,5.9-2.4,9c1.8,3.2,5.9,4.2,9,2.4c3.2-1.8,4.2-5.9,2.4-9
	C273.5,214.7,269.5,213.6,266.3,215.4z"/>
<path class="st0" d="M79.6,242.2c5.8,0,10.6-4.7,10.6-10.6c0-5.8-4.7-10.6-10.6-10.6s-10.6,4.7-10.6,10.6
	C69.1,237.5,73.8,242.2,79.6,242.2z"/>
<path class="st0" d="M338.2,215.8h-10.9c-1-7.7-4-14.7-8.5-20.6l7.7-7.7c2.1-2.1,2.1-5.4,0-7.5s-5.4-2.1-7.5,0l-7.7,7.7
	c-5.8-4.5-12.9-7.6-20.6-8.5v-10.9c0-2.9-2.4-5.3-5.3-5.3c-2.9,0-5.3,2.4-5.3,5.3v10.9c-7.7,1-14.7,4-20.6,8.5l-7.7-7.7
	c-2.1-2.1-5.4-2.1-7.5,0c-2.1,2.1-2.1,5.4,0,7.5l7.7,7.7c-4.5,5.8-7.6,12.9-8.5,20.6h-10.9c-2.9,0-5.3,2.4-5.3,5.3s2.4,5.3,5.3,5.3
	h10.9c1,7.7,4,14.7,8.5,20.6l-7.7,7.7c-5,5,2.6,12.3,7.5,7.5l7.7-7.7c5.8,4.5,12.9,7.6,20.6,8.5v10.9c0,7,10.6,7,10.6,0V263
	c7.7-1,14.7-4,20.6-8.5l7.7,7.7c4.9,4.9,12.4-2.5,7.5-7.5l-7.7-7.7c4.5-5.8,7.6-12.9,8.5-20.6h10.9
	C345.2,226.4,345.2,215.8,338.2,215.8z M285.4,252.8c-17.5,0-31.7-14.2-31.7-31.7c0-17.5,14.2-31.7,31.7-31.7s31.7,14.2,31.7,31.7
	C317.1,238.6,302.9,252.8,285.4,252.8z"/>
<path class="st0" d="M229.6,285.6l-4.6,0.8c-2.6-4.1-7.2-7.1-12.5-9.5l1-2.5c2.5-6.5-7.3-10.3-9.8-3.8l-1,2.7c-2-0.6-4-1.2-6-1.8
	c-4.7-1.4-9.4-2.8-13.4-4.5l1.2-2c3.7-5.9-5.3-11.5-8.9-5.6l-1.4,2.3c-0.4-0.3-0.8-0.5-1.2-0.9c-1.4-1-2.9-2-4.5-3.1
	c-2.4-1.6-5.7-1-7.3,1.4c-1.7,2.4-1,5.7,1.4,7.3c11.5,7.9,11.9,9.4,31.2,15.2c11.4,3.4,23.3,6.9,23.3,13.4
	c0,9.6-12.4,15.8-31.7,15.8c-17.6,0-37.2-7-51.1-18.2c-2.3-1.8-5.6-1.5-7.4,0.8c-1.8,2.3-1.5,5.6,0.8,7.4c2.4,2,5,3.7,7.6,5.4
	l-0.7,1.7c-2.6,6.5,7.1,10.4,9.8,4l0.2-0.5c6.8,3.4,14.1,5.9,21.4,7.6v4.5c0,7,10.6,7,10.6,0v-2.7c3,0.3,5.9,0.5,8.9,0.5
	c5.4,0,10.1-0.4,14.3-1.2l1.4,3c2.9,6.3,12.5,1.9,9.6-4.4l-0.7-1.4c11.8-4.7,16.9-12.9,17.5-20.6l4.1-0.7
	C238.2,294.8,236.5,284.5,229.6,285.6z"/>
</svg>
